# xmcd
#
# Track frame offsets: 
#        150
#        18012
#        35895
#        59077
#        69130
#        84232
#        99860
#        116992
#        138160
#        149155
#        160132
#        174997
#        183717
#
# Disc length: 2725 seconds
#
# Revision: 1
# Processed by: cddbd v1.5.1PL0 Copyright (c) Steve Scherf et al.
# Submitted via: ExactAudioCopy v0.95a5
#
DISCID=b20aa30d
DTITLE=Martin Taylor - Sketches: A Tribute to Art Tatum
DYEAR=2001
DGENRE=Jazz
TTITLE0=Ol' Man River
TTITLE1=Don't Get Around Much Anymore
TTITLE2=Blues for Mr.T
TTITLE3=It's Only a Paper Moon
TTITLE4=I've got the World on a String
TTITLE5=Honeysuckle Rose
TTITLE6=How High the Moon
TTITLE7=Takin' a Chance on Love
TTITLE8=Time after Time
TTITLE9=All the things you are
TTITLE10=All the thing you are (featuring Ike Isaacs)
TTITLE11=Cotton Tail (featuring Ike Isaacs)
TTITLE12=Misty (featuring Ike Isaacs)
EXTD=
EXTT0=
EXTT1=
EXTT2=
EXTT3=
EXTT4=
EXTT5=
EXTT6=
EXTT7=
EXTT8=
EXTT9=
EXTT10=
EXTT11=
EXTT12=
PLAYORDER=
